<svg width="154" height="17" viewBox="0 0 154 17" fill="none" xmlns="http://www.w3.org/2000/svg">
<path d="M6.182 16V10.28L6.556 11.292L0.022 0.599999H1.76L7.502 9.994H6.578L12.32 0.599999H13.948L7.414 11.292L7.788 10.28V16H6.182ZM22.5388 16.132C21.3802 16.132 20.3022 15.9413 19.3048 15.56C18.3222 15.164 17.4642 14.614 16.7308 13.91C16.0122 13.1913 15.4475 12.3627 15.0368 11.424C14.6408 10.4707 14.4428 9.42933 14.4428 8.3C14.4428 7.17067 14.6408 6.13667 15.0368 5.198C15.4475 4.24467 16.0122 3.416 16.7308 2.712C17.4642 1.99333 18.3222 1.44333 19.3048 1.062C20.2875 0.665999 21.3655 0.467999 22.5388 0.467999C23.6975 0.467999 24.7682 0.665999 25.7508 1.062C26.7335 1.44333 27.5842 1.986 28.3028 2.69C29.0362 3.394 29.6008 4.22267 29.9968 5.176C30.4075 6.12933 30.6128 7.17067 30.6128 8.3C30.6128 9.42933 30.4075 10.4707 29.9968 11.424C29.6008 12.3773 29.0362 13.206 28.3028 13.91C27.5842 14.614 26.7335 15.164 25.7508 15.56C24.7682 15.9413 23.6975 16.132 22.5388 16.132ZM22.5388 14.68C23.4628 14.68 24.3135 14.526 25.0908 14.218C25.8828 13.8953 26.5648 13.448 27.1368 12.876C27.7235 12.2893 28.1782 11.6147 28.5008 10.852C28.8235 10.0747 28.9848 9.224 28.9848 8.3C28.9848 7.376 28.8235 6.53267 28.5008 5.77C28.1782 4.99267 27.7235 4.318 27.1368 3.746C26.5648 3.15933 25.8828 2.712 25.0908 2.404C24.3135 2.08133 23.4628 1.92 22.5388 1.92C21.6148 1.92 20.7568 2.08133 19.9648 2.404C19.1728 2.712 18.4835 3.15933 17.8968 3.746C17.3248 4.318 16.8702 4.99267 16.5328 5.77C16.2102 6.53267 16.0488 7.376 16.0488 8.3C16.0488 9.20933 16.2102 10.0527 16.5328 10.83C16.8702 11.6073 17.3248 12.2893 17.8968 12.876C18.4835 13.448 19.1728 13.8953 19.9648 14.218C20.7568 14.526 21.6148 14.68 22.5388 14.68ZM40.9939 16.132C39.8352 16.132 38.7572 15.9413 37.7599 15.56C36.7772 15.164 35.9192 14.614 35.1859 13.91C34.4672 13.1913 33.9026 12.3627 33.4919 11.424C33.0959 10.4707 32.8979 9.42933 32.8979 8.3C32.8979 7.17067 33.0959 6.13667 33.4919 5.198C33.9026 4.24467 34.4672 3.416 35.1859 2.712C35.9192 1.99333 36.7772 1.44333 37.7599 1.062C38.7426 0.665999 39.8206 0.467999 40.9939 0.467999C42.1526 0.467999 43.2232 0.665999 44.2059 1.062C45.1886 1.44333 46.0392 1.986 46.7579 2.69C47.4912 3.394 48.0559 4.22267 48.4519 5.176C48.8626 6.12933 49.0679 7.17067 49.0679 8.3C49.0679 9.42933 48.8626 10.4707 48.4519 11.424C48.0559 12.3773 47.4912 13.206 46.7579 13.91C46.0392 14.614 45.1886 15.164 44.2059 15.56C43.2232 15.9413 42.1526 16.132 40.9939 16.132ZM40.9939 14.68C41.9179 14.68 42.7686 14.526 43.5459 14.218C44.3379 13.8953 45.0199 13.448 45.5919 12.876C46.1786 12.2893 46.6332 11.6147 46.9559 10.852C47.2786 10.0747 47.4399 9.224 47.4399 8.3C47.4399 7.376 47.2786 6.53267 46.9559 5.77C46.6332 4.99267 46.1786 4.318 45.5919 3.746C45.0199 3.15933 44.3379 2.712 43.5459 2.404C42.7686 2.08133 41.9179 1.92 40.9939 1.92C40.0699 1.92 39.2119 2.08133 38.4199 2.404C37.6279 2.712 36.9386 3.15933 36.3519 3.746C35.7799 4.318 35.3252 4.99267 34.9879 5.77C34.6652 6.53267 34.5039 7.376 34.5039 8.3C34.5039 9.20933 34.6652 10.0527 34.9879 10.83C35.3252 11.6073 35.7799 12.2893 36.3519 12.876C36.9386 13.448 37.6279 13.8953 38.4199 14.218C39.2119 14.526 40.0699 14.68 40.9939 14.68ZM52.717 16V0.599999H54.059L64.685 13.976H63.981V0.599999H65.587V16H64.245L53.641 2.624H54.345V16H52.717ZM87.6353 0.599999H89.2413V16H87.6353V0.599999ZM77.9993 16H76.3713V0.599999H77.9993V16ZM87.7893 8.894H77.8233V7.464H87.7893V8.894ZM97.9418 16V10.28L98.3158 11.292L91.7818 0.599999H93.5198L99.2618 9.994H98.3378L104.08 0.599999H105.708L99.1738 11.292L99.5478 10.28V16H97.9418ZM109.362 7.486H117.502V8.872H109.362V7.486ZM109.538 14.592H118.8V16H107.91V0.599999H118.47V2.008H109.538V14.592ZM129.316 16.132C128.158 16.132 127.08 15.9413 126.082 15.56C125.1 15.164 124.242 14.614 123.508 13.91C122.79 13.1913 122.225 12.3627 121.814 11.424C121.418 10.4707 121.22 9.42933 121.22 8.3C121.22 7.17067 121.418 6.13667 121.814 5.198C122.225 4.24467 122.79 3.416 123.508 2.712C124.242 1.99333 125.1 1.44333 126.082 1.062C127.065 0.665999 128.143 0.467999 129.316 0.467999C130.475 0.467999 131.546 0.665999 132.528 1.062C133.511 1.44333 134.362 1.986 135.08 2.69C135.814 3.394 136.378 4.22267 136.774 5.176C137.185 6.12933 137.39 7.17067 137.39 8.3C137.39 9.42933 137.185 10.4707 136.774 11.424C136.378 12.3773 135.814 13.206 135.08 13.91C134.362 14.614 133.511 15.164 132.528 15.56C131.546 15.9413 130.475 16.132 129.316 16.132ZM129.316 14.68C130.24 14.68 131.091 14.526 131.868 14.218C132.66 13.8953 133.342 13.448 133.914 12.876C134.501 12.2893 134.956 11.6147 135.278 10.852C135.601 10.0747 135.762 9.224 135.762 8.3C135.762 7.376 135.601 6.53267 135.278 5.77C134.956 4.99267 134.501 4.318 133.914 3.746C133.342 3.15933 132.66 2.712 131.868 2.404C131.091 2.08133 130.24 1.92 129.316 1.92C128.392 1.92 127.534 2.08133 126.742 2.404C125.95 2.712 125.261 3.15933 124.674 3.746C124.102 4.318 123.648 4.99267 123.31 5.77C122.988 6.53267 122.826 7.376 122.826 8.3C122.826 9.20933 122.988 10.0527 123.31 10.83C123.648 11.6073 124.102 12.2893 124.674 12.876C125.261 13.448 125.95 13.8953 126.742 14.218C127.534 14.526 128.392 14.68 129.316 14.68ZM141.039 16V0.599999H142.381L153.007 13.976H152.303V0.599999H153.909V16H152.567L141.963 2.624H142.667V16H141.039Z" fill="black"/>
</svg>
