<svg width="33" height="32" viewBox="0 0 33 32" fill="none" xmlns="http://www.w3.org/2000/svg">
<g clip-path="url(#clip0_750_563)">
<path d="M16.5724 0C7.82189 0 0.734375 7.08752 0.734375 15.838C0.734375 22.8464 5.26801 28.7658 11.5636 30.8644C12.3555 31.0029 12.6525 30.5278 12.6525 30.1121C12.6525 29.7359 12.6327 28.4887 12.6327 27.1622C8.65339 27.8947 7.62392 26.1921 7.30716 25.3012C7.12898 24.8459 6.35687 23.4403 5.68376 23.0641C5.12943 22.7672 4.33753 22.0347 5.66396 22.0149C6.91121 21.9951 7.80209 23.1631 8.09906 23.6383C9.52448 26.0338 11.8012 25.3606 12.7119 24.9449C12.8505 23.9154 13.2662 23.2225 13.7216 22.8266C10.1976 22.4306 6.51526 21.0646 6.51526 15.0065C6.51526 13.2841 7.12898 11.8587 8.13865 10.7501C7.98027 10.3541 7.42594 8.73071 8.29703 6.55298C8.29703 6.55298 9.62347 6.13724 12.6525 8.17638C13.9195 7.82003 15.2658 7.64185 16.612 7.64185C17.9582 7.64185 19.3045 7.82003 20.5715 8.17638C23.6005 6.11744 24.927 6.55298 24.927 6.55298C25.7981 8.73071 25.2437 10.3541 25.0853 10.7501C26.095 11.8587 26.7087 13.2643 26.7087 15.0065C26.7087 21.0844 23.0066 22.4306 19.4826 22.8266C20.0568 23.3215 20.5517 24.2718 20.5517 25.7566C20.5517 27.8749 20.5319 29.5775 20.5319 30.1121C20.5319 30.5278 20.8289 31.0227 21.6208 30.8644C24.7651 29.8032 27.4974 27.7826 29.4329 25.087C31.3685 22.3914 32.4099 19.1566 32.4104 15.838C32.4104 7.08752 25.3229 0 16.5724 0Z" fill="black" fill-opacity="0.7"/>
</g>
<defs>
<clipPath id="clip0_750_563">
<rect width="31.6761" height="31.6761" fill="white" transform="translate(0.734375)"/>
</clipPath>
</defs>
</svg>
