<svg width="33" height="32" viewBox="0 0 33 32" fill="none" xmlns="http://www.w3.org/2000/svg">
<path d="M12.3164 19.5555L12.3641 19.5788L12.4493 19.6199C12.5579 19.6716 12.6675 19.7228 12.7781 19.7721L12.8477 19.803C12.9746 19.8587 13.1023 19.9116 13.2315 19.9626L13.3251 19.9992C13.4443 20.0458 13.5656 20.0908 13.6871 20.1336L13.7326 20.1492C13.866 20.1957 14.0006 20.239 14.1365 20.2814L14.2343 20.3103C14.3723 20.3521 14.5087 20.4019 14.6512 20.4284C23.6972 22.0777 26.3246 14.9922 26.3246 14.9922C24.1177 17.8673 20.2005 18.6258 16.4889 17.7814C16.3484 17.7497 16.2118 17.7057 16.0747 17.6651L15.9715 17.6339C15.8378 17.5929 15.7048 17.5497 15.5726 17.5043L15.5179 17.4845C15.4 17.4427 15.2828 17.3992 15.1662 17.354L15.0677 17.3154C14.9402 17.2653 14.8136 17.2126 14.6881 17.1576L14.6121 17.1239C14.5048 17.0755 14.3981 17.0258 14.2919 16.9749L14.1991 16.9304C14.116 16.8898 14.0336 16.8465 13.9514 16.8042L13.7861 16.7176C13.6862 16.6638 13.5873 16.6083 13.4894 16.551L13.3891 16.4951C13.259 16.4181 13.13 16.339 13.0024 16.258L12.8982 16.1887C12.8055 16.1292 12.7137 16.0683 12.623 16.0058L12.5344 15.9435C12.4468 15.8816 12.3602 15.819 12.2743 15.7554L12.159 15.668C12.08 15.608 12.0018 15.5469 11.9244 15.4849L11.8197 15.4008C11.7212 15.3199 11.6237 15.2378 11.5272 15.1545L11.4953 15.1276C11.3911 15.0363 11.2884 14.9434 11.1874 14.8487L11.1008 14.7653C11.0258 14.6942 10.9523 14.6225 10.8798 14.549L10.7932 14.4624C10.7013 14.3683 10.611 14.2728 10.5222 14.1758L10.5089 14.1614C10.4152 14.0589 10.3236 13.9546 10.2339 13.8486L10.1619 13.763C10.0951 13.6826 10.0288 13.6009 9.96417 13.5185L9.89166 13.4284C9.81407 13.3282 9.73792 13.2268 9.66325 13.1243C7.60282 10.3135 6.86239 6.43694 8.5093 3.25325L7.04948 5.10481C5.17886 7.79307 5.41198 11.2908 6.84062 14.1476L6.9453 14.3508L7.01236 14.4794L7.05394 14.5534L7.12842 14.6868C7.17272 14.765 7.21801 14.8427 7.26453 14.9204L7.34249 15.0489C7.39396 15.132 7.44667 15.2142 7.50087 15.2963L7.56818 15.4008C7.64267 15.5116 7.71889 15.6225 7.79733 15.7314L7.80402 15.74L7.84262 15.7923C7.91067 15.8861 7.98071 15.9786 8.05148 16.0702L8.13018 16.1701C8.19328 16.2496 8.25787 16.3288 8.32321 16.4075L8.39695 16.4953C8.4848 16.599 8.57439 16.702 8.66595 16.8027L8.67139 16.8084L8.68179 16.8198C8.77088 16.9173 8.86244 17.0123 8.95499 17.1078L9.0426 17.1962C9.11436 17.2684 9.18712 17.3394 9.26087 17.4102L9.3502 17.4951C9.44845 17.5877 9.54768 17.6785 9.64915 17.7676L9.65409 17.7713L9.70606 17.8158C9.7954 17.893 9.88647 17.97 9.97803 18.0455L10.0906 18.1351C10.1654 18.1949 10.2411 18.2541 10.3173 18.3122L10.4383 18.4043C10.5225 18.4662 10.6071 18.527 10.6925 18.5867L10.7853 18.6525L10.8108 18.6706C10.8919 18.7265 10.9748 18.78 11.0577 18.8337L11.1646 18.9049C11.2916 18.9854 11.4208 19.0648 11.5512 19.1415L11.6581 19.2019C11.7541 19.2571 11.8504 19.3113 11.9481 19.3642L12.1085 19.4474L12.3164 19.5555ZM13.2303 10.4499C13.4329 10.7404 13.6574 11.0859 13.9264 11.3195C14.0239 11.4269 14.1259 11.5313 14.2298 11.6345L14.31 11.7132C14.4112 11.8112 14.5139 11.9075 14.6198 12.0013L14.6327 12.0122L14.6356 12.0154C14.7532 12.1183 14.8745 12.2173 14.9977 12.3148L15.0801 12.3792C15.2038 12.474 15.3298 12.567 15.459 12.6558L15.4701 12.664L15.6428 12.7778L15.725 12.8323C15.8173 12.8912 15.9106 12.9491 16.0059 13.004L16.0455 13.027C16.1274 13.0743 16.2105 13.1208 16.2937 13.1659L16.3818 13.2122L16.5555 13.302L16.5817 13.3139C16.701 13.3725 16.8213 13.4289 16.944 13.4826L17.024 13.5155C17.122 13.5571 17.2212 13.598 17.3207 13.6361L17.4479 13.6826C17.5385 13.7162 17.629 13.7469 17.7206 13.7774L17.8441 13.817C17.9743 13.8573 18.1027 13.9083 18.2383 13.9308C25.2224 15.0882 26.8349 9.71046 26.8349 9.71046C25.3813 11.8038 22.5665 12.8023 19.5628 12.0228C19.43 11.988 19.2982 11.9498 19.1673 11.9085L19.0483 11.8701C18.9555 11.8402 18.8632 11.8083 18.7716 11.7748L18.6469 11.7283C18.5469 11.6899 18.4476 11.6499 18.3489 11.6083L18.2687 11.5742C18.1459 11.5207 18.0245 11.4642 17.9045 11.4046L17.7216 11.3116L17.6162 11.2574C17.5385 11.2153 17.4613 11.1713 17.385 11.127L17.3298 11.0955C17.2354 11.0404 17.142 10.9836 17.0497 10.925L16.9653 10.8684L16.7842 10.7486C16.6561 10.6598 16.5303 10.5678 16.4068 10.4727L16.3219 10.4056C15.0071 9.36797 13.965 7.94898 13.4693 6.34018C12.9501 4.67224 13.062 2.79939 13.9615 1.27968L12.8563 2.84022C11.5037 4.78657 11.5772 7.39267 12.6324 9.45136C12.8089 9.79734 13.0086 10.131 13.2303 10.4499ZM20.5917 8.04178L20.7652 8.10191L20.8417 8.12616C20.9241 8.1519 21.0055 8.18209 21.0904 8.19793C24.9467 8.94306 25.993 6.21892 26.2714 5.81802C25.355 7.13728 23.8153 7.45379 21.9258 6.99523C21.7711 6.95587 21.6185 6.90879 21.4685 6.85417C21.2838 6.78854 21.1027 6.71337 20.9258 6.62898C20.5901 6.46745 20.2712 6.27288 19.9741 6.04817C18.2833 4.76504 17.2331 2.31831 18.3363 0.325195L17.7394 1.14778C16.9421 2.32153 16.8636 3.77912 17.417 5.07487C18.0005 6.4508 19.1963 7.52976 20.5917 8.04178ZM16.8693 23.8306H15.8235C15.7939 23.8317 15.7655 23.8424 15.7424 23.861C15.7194 23.8795 15.7029 23.9051 15.6956 23.9338L15.3244 25.6512L14.9532 27.3686C14.9459 27.3973 14.9295 27.4228 14.9065 27.4414C14.8834 27.46 14.855 27.4707 14.8255 27.4718H14.0853C13.353 27.4718 13.4377 26.9652 13.5876 26.2713L13.5921 26.2503L13.6084 26.1627L13.6114 26.1464L13.6448 25.9682L13.6807 25.7774L13.7188 25.5831L13.8876 24.7586L14.0566 23.934C14.0598 23.9214 14.06 23.9082 14.0572 23.8955C14.0544 23.8828 14.0487 23.871 14.0405 23.8609C14.0323 23.8508 14.0219 23.8428 14.01 23.8375C13.9981 23.8322 13.9852 23.8297 13.9722 23.8303H12.8989C12.8693 23.8314 12.8409 23.8421 12.818 23.8607C12.795 23.8794 12.7788 23.905 12.7717 23.9338L12.5408 25.0286L12.3102 26.1236L12.3097 26.1251L12.2884 26.227C12.0226 27.4404 12.0929 28.5978 13.5376 28.6342L13.5797 28.6349H15.8473C15.8768 28.6338 15.9052 28.6232 15.9283 28.6046C15.9513 28.586 15.9677 28.5604 15.975 28.5317L16.464 26.233L16.953 23.934C16.9651 23.8771 16.9275 23.8308 16.8693 23.8306ZM5.66984 23.8184H4.52158C4.49192 23.8196 4.4634 23.8302 4.4402 23.8487C4.41701 23.8672 4.40034 23.8927 4.39265 23.9214L4.28377 24.402L4.17488 24.8825C4.16226 24.9392 4.19913 24.9855 4.25729 24.9855H5.41445C5.44409 24.9844 5.47258 24.9738 5.49568 24.9552C5.51877 24.9366 5.53525 24.911 5.54264 24.8823L5.64782 24.402L5.75299 23.9216C5.76512 23.865 5.728 23.8184 5.66984 23.8184ZM5.33675 25.3141H4.17933C4.14968 25.3153 4.12118 25.326 4.09799 25.3445C4.0748 25.363 4.05813 25.3884 4.0504 25.4171L3.88782 26.1372L3.72548 26.8571L3.68019 27.0635L3.52404 27.7985L3.36813 28.5337C3.356 28.5904 3.33101 28.6819 3.31245 28.7369C3.31245 28.7369 3.09616 29.3803 2.73263 29.3729L2.6871 29.3719L2.37256 29.3662C2.34301 29.3669 2.31422 29.3771 2.29088 29.3952C2.26754 29.4133 2.25063 29.4385 2.24264 29.4669L2.12262 29.9715L2.00284 30.4758C1.98923 30.5323 2.02586 30.5788 2.08352 30.5798C2.28966 30.5823 2.75144 30.5875 3.03083 30.5875C3.93879 30.5875 4.41765 30.0844 4.72426 28.6367L5.08334 26.9751L5.42014 25.4168C5.43227 25.3607 5.39466 25.3141 5.33675 25.3141ZM26.648 24.9246L26.6 24.7264L26.5528 24.5235L26.5288 24.421C26.4347 24.0555 26.1588 23.8449 25.5594 23.8449L24.6265 23.8439L23.7673 23.8427H22.8004C22.7708 23.8438 22.7425 23.8544 22.7195 23.873C22.6965 23.8916 22.6802 23.9172 22.673 23.9459L22.6301 24.1478L22.5797 24.3864L22.5656 24.4534L22.1303 26.4926L21.717 28.4283C21.7046 28.4852 21.7006 28.555 21.7076 28.5832C21.7145 28.6117 21.8261 28.6349 21.884 28.6349H22.7561C22.8143 28.6349 22.8878 28.6245 22.9194 28.6117C22.9511 28.5988 22.9979 28.4847 23.0095 28.428L23.1644 27.6611L23.3196 26.894L23.3198 26.8927L23.3406 26.7905L23.5287 25.9095L23.6948 25.1315C23.7021 25.1029 23.7184 25.0774 23.7414 25.0588C23.7643 25.0402 23.7927 25.0295 23.8222 25.0283L26.5664 25.0271C26.6245 25.0276 26.6612 24.9813 26.648 24.9246ZM30.1807 23.1329L29.9693 23.1337H29.0911C29.0589 23.1355 29.0275 23.1442 28.999 23.1593C28.9705 23.1744 28.9456 23.1954 28.926 23.221L26.9836 26.0664C26.951 26.1145 26.9136 26.1075 26.9007 26.0511L26.7577 25.4243C26.75 25.3955 26.7333 25.3701 26.71 25.3515C26.6868 25.333 26.6582 25.3224 26.6285 25.3213H25.38C25.3219 25.3213 25.2875 25.3668 25.3033 25.4225L25.8628 27.3827C25.8787 27.4387 25.8799 27.5302 25.8656 27.5866L25.6218 28.5352C25.6072 28.5916 25.6428 28.6374 25.701 28.6374H26.9351C26.965 28.6362 26.9937 28.6257 27.0173 28.6074C27.0409 28.589 27.0582 28.5638 27.0668 28.5352L27.3108 27.5866C27.3301 27.5198 27.3604 27.4566 27.4006 27.3998L30.5539 23.2149C30.589 23.1683 30.5699 23.1305 30.512 23.131L30.1807 23.1329ZM20.2606 25.5876V25.5866C20.2563 25.6165 20.2416 25.6439 20.2189 25.6639C20.1963 25.6839 20.1673 25.6952 20.1371 25.6957H18.5541C18.4991 25.6957 18.4714 25.6586 18.4796 25.6126L18.4811 25.6089L18.4801 25.6094L18.4808 25.6042L18.488 25.5772C18.6392 25.1753 18.9471 24.9115 19.5259 24.9115C20.1777 24.9113 20.3049 25.2295 20.2606 25.5876ZM19.7961 23.7603C17.7642 23.7603 17.2826 24.9937 17.0123 26.2387C16.7424 27.5077 16.7654 28.6938 18.8684 28.6938H19.1233L19.1866 28.6936H19.2015L19.4539 28.6928H19.4583C20.0136 28.6906 20.5707 28.6864 20.7961 28.6847C20.8255 28.6832 20.8536 28.6723 20.8763 28.6535C20.899 28.6348 20.9151 28.6093 20.9221 28.5807L21.0072 28.1647L21.0238 28.0838L21.1253 27.5874C21.1285 27.5748 21.1287 27.5616 21.126 27.549C21.1232 27.5363 21.1174 27.5244 21.1092 27.5143C21.101 27.5043 21.0906 27.4963 21.0787 27.491C21.0668 27.4857 21.0539 27.4833 21.0409 27.4839H19.1505C18.3984 27.4839 18.1752 27.2842 18.2576 26.6967H21.2795L21.2792 26.697L21.2812 26.6967C21.3051 26.6957 21.3282 26.6878 21.3477 26.674C21.3673 26.6602 21.3824 26.641 21.3913 26.6188L21.3985 26.5926L21.3982 26.5928C21.8469 24.9004 21.7182 23.7605 19.7961 23.7603ZM10.1918 25.5812L10.1631 25.6824L9.93497 26.4913L9.70681 27.2998C9.69748 27.3285 9.6796 27.3536 9.65557 27.3718C9.63155 27.3899 9.60254 27.4003 9.57243 27.4015H8.36478C7.44865 27.4015 7.22543 26.6849 7.44865 25.6282C7.67162 24.5472 8.1089 23.8753 9.01068 23.8073C10.2431 23.7142 10.4896 24.5809 10.1918 25.5812ZM11.0204 27.3394C11.0204 27.3394 11.5898 25.9566 11.719 25.1582C11.8954 24.0894 11.3601 22.5388 9.29279 22.5388C7.23731 22.5388 6.34444 24.0189 6.00392 25.6282C5.66341 27.2491 6.10959 28.6703 8.15344 28.6587L9.76595 28.6527L11.2728 28.6473C11.3027 28.6458 11.3313 28.6352 11.355 28.6169C11.3786 28.5985 11.3961 28.5734 11.4049 28.5448L11.6675 27.5436C11.6821 27.4872 11.6467 27.4411 11.5886 27.4406L11.3369 27.4392L11.0852 27.4377C11.036 27.4374 11.0078 27.4052 11.0137 27.3629L11.0204 27.3394ZM21.1963 26.4136C21.1963 26.4227 21.1945 26.4318 21.1911 26.4402C21.1876 26.4486 21.1825 26.4562 21.1761 26.4627C21.1697 26.4691 21.162 26.4742 21.1536 26.4777C21.1452 26.4812 21.1362 26.483 21.1271 26.4831C21.118 26.4831 21.109 26.4813 21.1006 26.4778C21.0922 26.4744 21.0845 26.4693 21.0781 26.4628C21.0717 26.4564 21.0665 26.4488 21.063 26.4404C21.0595 26.432 21.0577 26.423 21.0577 26.4139C21.0577 26.3955 21.065 26.3779 21.0779 26.3649C21.0909 26.3518 21.1085 26.3445 21.1269 26.3445C21.1453 26.3444 21.1629 26.3517 21.1759 26.3647C21.1889 26.3777 21.1963 26.3953 21.1963 26.4136Z" fill="black" fill-opacity="0.7"/>
</svg>
