<svg width="32" height="32" viewBox="0 0 32 32" fill="none" xmlns="http://www.w3.org/2000/svg">
<g clip-path="url(#clip0_750_578)">
<path d="M0.320312 0V31.6761H31.9964V0H0.320312ZM17.5589 24.7039C17.5589 27.7867 15.7488 29.194 13.1118 29.194C10.7293 29.194 9.35025 27.9643 8.6432 26.4721L11.0687 25.0082C11.5359 25.8352 11.9601 26.5355 12.9851 26.5355C13.9602 26.5355 14.5825 26.1531 14.5825 24.6621V14.5438H17.5589V24.7039ZM24.6 29.194C21.8351 29.194 20.0466 27.8795 19.1766 26.1531L21.6021 24.7537C22.239 25.7934 23.0728 26.5638 24.5367 26.5638C25.7664 26.5638 26.5594 25.9483 26.5594 25.0931C26.5594 24.0749 25.7528 23.7141 24.3885 23.1133L23.6463 22.7954C21.4969 21.8836 20.076 20.7308 20.076 18.3054C20.076 16.0711 21.7797 14.3741 24.4314 14.3741C26.3264 14.3741 27.6839 15.0314 28.6602 16.7566L26.3411 18.242C25.832 17.3302 25.2799 16.9693 24.4247 16.9693C23.5558 16.9693 23.0038 17.5214 23.0038 18.242C23.0038 19.1335 23.5558 19.4932 24.8353 20.0521L25.5774 20.37C28.1093 21.4515 29.5302 22.5624 29.5302 25.0501C29.5302 27.7233 27.4226 29.1929 24.6011 29.1929L24.6 29.194Z" fill="black" fill-opacity="0.7"/>
</g>
<defs>
<clipPath id="clip0_750_578">
<rect width="31.6761" height="31.6761" fill="white" transform="translate(0.320312)"/>
</clipPath>
</defs>
</svg>
