<svg width="33" height="32" viewBox="0 0 33 32" fill="none" xmlns="http://www.w3.org/2000/svg">
<g clip-path="url(#clip0_750_586)">
<path fill-rule="evenodd" clip-rule="evenodd" d="M11.3551 6.68216H14.6548L19.3996 22.5784H16.5335L15.3533 18.0504H10.729L9.52468 22.5785H6.99573L11.3552 7.42884L11.3551 6.68216ZM14.703 15.7142L13.0652 8.99427L11.3792 15.714L14.703 15.7142ZM24.313 10.7648H21.7118V22.5785H24.313V10.7648ZM22.9788 6.17504C22.1361 6.17504 21.453 6.85032 21.453 7.68336C21.453 8.5164 22.1361 9.19175 22.9788 9.19175C23.8215 9.19175 24.5047 8.51647 24.5047 7.68342C24.5047 6.85038 23.8216 6.17504 22.9788 6.17504ZM32.387 31.6761H0.710938V0H32.387V31.6761Z" fill="black" fill-opacity="0.7"/>
</g>
<defs>
<clipPath id="clip0_750_586">
<rect width="31.6761" height="31.6761" fill="white" transform="translate(0.710938)"/>
</clipPath>
</defs>
</svg>
