<svg width="32" height="32" viewBox="0 0 32 32" fill="none" xmlns="http://www.w3.org/2000/svg">
<g clip-path="url(#clip0_750_570)">
<mask id="mask0_750_570" style="mask-type:luminance" maskUnits="userSpaceOnUse" x="0" y="0" width="32" height="32">
<path d="M0.617188 0H31.5013V31.6761H0.617188V0Z" fill="white"/>
</mask>
<g mask="url(#mask0_750_570)">
<path d="M7.17188 0H8.56424V1.4109H9.83821V0H11.2306V4.27099H9.83821V2.84161H8.56424V4.27099H7.17316L7.17188 0ZM13.0605 1.41618H11.8354V0H15.6792V1.41618H14.4528V4.27099H13.0605V1.41618ZM16.2891 0H17.7407L18.6338 1.50065L19.5255 0H20.9771V4.27099H19.5912V2.15397L18.6338 3.6731H18.6093L17.6506 2.15529V4.27099H16.2891V0ZM21.6694 0H23.0631V2.86008H25.0191V4.27231H21.6694V0Z" fill="black" fill-opacity="0.7"/>
<path fill-rule="evenodd" clip-rule="evenodd" d="M7.12506 29.1323L4.49219 6.22656H27.6553L25.0211 29.1297L16.0609 31.677L7.12506 29.1323ZM12.4487 16.5939L12.1991 13.7166H22.6804L22.9249 10.908H9.20717L9.94581 19.4038H19.4388L19.121 23.0465L16.066 23.8939H16.0634L13.0136 23.0492L12.818 20.8094H10.0668L10.4503 25.2203L16.0609 26.8173L21.6805 25.2203L22.3651 17.3488L22.432 16.5952L12.4487 16.5939Z" fill="black" fill-opacity="0.7"/>
</g>
</g>
<defs>
<clipPath id="clip0_750_570">
<rect width="30.8842" height="31.6761" fill="white" transform="translate(0.625)"/>
</clipPath>
</defs>
</svg>
