<svg width="33" height="32" viewBox="0 0 33 32" fill="none" xmlns="http://www.w3.org/2000/svg">
<g clip-path="url(#clip0_750_588)">
<path fill-rule="evenodd" clip-rule="evenodd" d="M32.0901 31.6761H0.414062V0H32.0901V31.6761ZM25.5575 13.4261V10.9693C25.1529 10.7892 22.8359 10.1264 21.0055 10.8249C18.3687 11.8309 18.4634 14.8618 19.464 16.0513C20.7604 17.5926 23.9854 18.1672 23.4576 19.68C23.1844 20.4633 21.9086 20.5997 20.7839 20.3367C19.7365 20.0918 18.8258 19.4714 18.8258 19.4714V22.0726C18.8258 22.0726 19.7259 22.5745 20.8308 22.6939C22.2471 22.8469 24.0224 22.558 24.9118 21.7675C26.495 20.3602 26.7382 17.2427 23.7379 15.795C21.2413 14.5905 21.2823 14.2467 21.2998 13.6288C21.3234 12.8013 23.0608 12.2919 25.5575 13.4261ZM12.094 6.53164C14.1713 6.6039 17.2241 7.5613 17.2241 11.6437C17.2241 15.7262 13.489 17.0658 10.0808 16.7739V22.5543H7.54179V6.58577C7.54179 6.58577 10.0166 6.45938 12.094 6.53164ZM12.7532 14.2449C13.8481 13.8455 14.5596 12.9867 14.5596 11.6527C14.5596 10.2384 13.8355 9.28059 12.7279 9.01004C11.5286 8.71698 10.0807 8.88971 10.0807 8.88971V14.4605C10.0807 14.4605 12.0849 14.4888 12.7532 14.2449Z" fill="black" fill-opacity="0.7"/>
</g>
<defs>
<clipPath id="clip0_750_588">
<rect width="31.6761" height="31.6761" fill="white" transform="translate(0.414062)"/>
</clipPath>
</defs>
</svg>
