<svg width="32" height="32" viewBox="0 0 32 32" fill="none" xmlns="http://www.w3.org/2000/svg">
<g clip-path="url(#clip0_750_567)">
<path d="M10.0391 0H13.4416V1.42278H11.4618V2.84557H13.4416V4.26835H10.0391V0ZM14.1213 0H17.5252V1.23801H15.5454V1.48482H17.5252V4.33038H14.1213V3.03166H16.1011V2.78353H14.1213V0ZM18.2062 0H21.6074V1.23801H19.6277V1.48482H21.6074V4.33038H18.2062V3.03166H20.186V2.78353H18.2062V0Z" fill="black" fill-opacity="0.7"/>
<path fill-rule="evenodd" clip-rule="evenodd" d="M15.9682 31.677L6.80327 29.1323L4.10156 6.22656H27.8586L25.1582 29.1297L15.9682 31.677ZM9.44294 16.5952L9.69503 19.4038H19.4315L19.1055 23.0465L15.9722 23.8939H15.9695L12.8415 23.0492L12.6409 20.8094H9.82041L10.2137 25.2203L15.9682 26.8173L21.7319 25.2203L22.4341 17.3488L22.5027 16.5952L23.0095 10.908H8.93744L9.19349 13.7179H19.9317L19.6756 16.5952H9.44294Z" fill="black" fill-opacity="0.7"/>
</g>
<defs>
<clipPath id="clip0_750_567">
<rect width="31.6761" height="31.6761" fill="white" transform="translate(0.132812)"/>
</clipPath>
</defs>
</svg>
