<svg width="32" height="32" viewBox="0 0 32 32" fill="none" xmlns="http://www.w3.org/2000/svg">
<path fill-rule="evenodd" clip-rule="evenodd" d="M31.6917 0H0.015625V31.6761H31.6917V0ZM11.9026 4.15846C10.765 4.15846 9.67388 4.6104 8.86943 5.41485C8.06498 6.2193 7.61305 7.31037 7.61305 8.44803C7.61305 9.5857 8.06498 10.6768 8.86943 11.4812C9.1277 11.7395 9.41551 11.9614 9.72491 12.1437C9.41565 12.326 9.12798 12.5478 8.86982 12.806C8.06548 13.6103 7.6136 14.7013 7.6136 15.8388C7.6136 16.9763 8.06548 18.0672 8.86982 18.8716C9.12777 19.1295 9.4152 19.3512 9.72418 19.5334C9.65485 19.5742 9.58654 19.6171 9.51935 19.662C8.81405 20.1332 8.26432 20.803 7.93965 21.5867C7.61499 22.3703 7.52998 23.2326 7.69536 24.0646C7.86075 24.8965 8.26911 25.6607 8.86882 26.2606C9.46852 26.8605 10.2326 27.2691 11.0645 27.4347C11.8964 27.6004 12.7588 27.5156 13.5425 27.1912C14.3262 26.8668 14.9962 26.3172 15.4676 25.6121C15.9391 24.9069 16.1908 24.0778 16.1911 23.2296V23.2294V20.1278H16.1916V19.5339V18.8018C16.214 18.8252 16.2367 18.8483 16.2596 18.8713C17.0641 19.6757 18.1551 20.1277 19.2928 20.1277C20.4305 20.1277 21.5215 19.6757 22.326 18.8713C23.1304 18.0668 23.5824 16.9758 23.5824 15.8381C23.5824 14.7004 23.1304 13.6094 22.326 12.8049C22.0683 12.5473 21.7813 12.3258 21.4727 12.1437C21.7821 11.9614 22.0699 11.7395 22.3281 11.4812C23.1326 10.6768 23.5845 9.5857 23.5845 8.44803C23.5845 7.31037 23.1326 6.2193 22.3281 5.41485C21.5237 4.6104 20.4326 4.15846 19.295 4.15846H16.1916H15.5999H15.5977H15.0059H11.9026ZM16.1916 12.7376V12.8745C16.214 12.851 16.2367 12.8279 16.2596 12.8049C16.2823 12.7822 16.3053 12.7598 16.3285 12.7376H16.1916ZM19.3604 11.5491C19.3379 11.5487 19.3153 11.5485 19.2928 11.5485C19.2586 11.5485 19.2245 11.5489 19.1904 11.5498H16.1938V5.34631H19.295C20.1176 5.34631 20.9065 5.6731 21.4882 6.25478C22.0699 6.83647 22.3967 7.6254 22.3967 8.44803C22.3967 9.27066 22.0699 10.0596 21.4882 10.6413C20.922 11.2075 20.1593 11.5322 19.3604 11.5491ZM19.2058 12.7376C18.4147 12.7598 17.6607 13.0837 17.0996 13.6449C16.5317 14.2127 16.2068 14.9781 16.1916 15.7795V15.8967C16.2068 16.6981 16.5317 17.4635 17.0996 18.0313C17.6812 18.613 18.4702 18.9398 19.2928 18.9398C20.1154 18.9398 20.9044 18.613 21.486 18.0313C22.0677 17.4497 22.3945 16.6607 22.3945 15.8381C22.3945 15.0155 22.0677 14.2265 21.486 13.6449C20.9202 13.079 20.1583 12.7544 19.36 12.7371C19.3383 12.7374 19.3167 12.7376 19.295 12.7376H19.2058ZM15.0032 15.8381C15.0032 15.8151 15.0034 15.7921 15.0038 15.7692V12.7376H11.9026C11.0801 12.7376 10.2913 13.0643 9.70976 13.6459C9.12818 14.2275 8.80145 15.0163 8.80145 15.8388C8.80145 16.6612 9.12818 17.45 9.70976 18.0316C10.2913 18.6132 11.0801 18.9399 11.9026 18.9399H15.0038V15.907C15.0034 15.8841 15.0032 15.8611 15.0032 15.8381ZM9.70937 10.6413C10.2911 11.223 11.08 11.5498 11.9026 11.5498H15.0038V5.34631H11.9026C11.08 5.34631 10.2911 5.6731 9.70937 6.25478C9.12768 6.83647 8.8009 7.6254 8.8009 8.44803C8.8009 9.27066 9.12768 10.0596 9.70937 10.6413ZM11.9021 20.1282C11.2881 20.1282 10.6887 20.3093 10.1792 20.6497C9.66928 20.9904 9.2718 21.4747 9.03705 22.0413C8.8023 22.6079 8.74084 23.2314 8.86042 23.8329C8.98 24.4345 9.27527 24.9871 9.70888 25.4208C10.1425 25.8546 10.695 26.15 11.2965 26.2697C11.898 26.3895 12.5215 26.3282 13.0882 26.0937C13.6549 25.8591 14.1393 25.4617 14.4801 24.9519C14.821 24.4421 15.003 23.8426 15.0032 23.2294V23.2292V20.1282H11.9021Z" fill="black" fill-opacity="0.7"/>
</svg>
